<?xml version="1.0" encoding="UTF-8" standalone="no"?>
<!-- Created with Inkscape (http://www.inkscape.org/) -->

<svg
   xmlns:dc="http://purl.org/dc/elements/1.1/"
   xmlns:cc="http://creativecommons.org/ns#"
   xmlns:rdf="http://www.w3.org/1999/02/22-rdf-syntax-ns#"
   xmlns:svg="http://www.w3.org/2000/svg"
   xmlns="http://www.w3.org/2000/svg"
   xmlns:sodipodi="http://sodipodi.sourceforge.net/DTD/sodipodi-0.dtd"
   xmlns:inkscape="http://www.inkscape.org/namespaces/inkscape"
   width="74.246994mm"
   height="21.286613mm"
   viewBox="0 0 74.246994 21.286613"
   version="1.1"
   id="svg325"
   inkscape:version="0.92.3 (2405546, 2018-03-11)"
   sodipodi:docname="logo-white.png">
  <defs
     id="defs319" />
  <sodipodi:namedview
     id="base"
     pagecolor="#ffffff"
     bordercolor="#666666"
     borderopacity="1.0"
     inkscape:pageopacity="0.0"
     inkscape:pageshadow="2"
     inkscape:zoom="1.979899"
     inkscape:cx="175.49211"
     inkscape:cy="20.39312"
     inkscape:document-units="mm"
     inkscape:current-layer="layer1"
     showgrid="false"
     inkscape:pagecheckerboard="true"
     inkscape:window-width="1600"
     inkscape:window-height="832"
     inkscape:window-x="0"
     inkscape:window-y="0"
     inkscape:window-maximized="1"
     fit-margin-top="0"
     fit-margin-left="0"
     fit-margin-right="0"
     fit-margin-bottom="0" />
  <metadata
     id="metadata322">
    <rdf:RDF>
      <cc:Work
         rdf:about="">
        <dc:format>image/svg+xml</dc:format>
        <dc:type
           rdf:resource="http://purl.org/dc/dcmitype/StillImage" />
        <dc:title></dc:title>
      </cc:Work>
    </rdf:RDF>
  </metadata>
  <g
     inkscape:label="Calque 1"
     inkscape:groupmode="layer"
     id="layer1"
     transform="translate(-66.441979,-105.68407)">
    <g
       id="document-7"
       transform="matrix(0.01313268,0,0,0.01313268,75.199086,116.33409)"
       style="fill:#ffffff">
      <path
         style="fill:#ffffff;fill-opacity:1"
         inkscape:connector-curvature="0"
         d="m 352.198,272.526 -0.267,-426.871 c 0,-6.639 -6.361,-11.618 -13.177,-11.618 -7.271,0 -12.724,4.979 -12.724,11.618 l 0.277,442.981 -83.138,51.73 -0.293,-425.8367 c 0,-6.2236 -5.908,-11.6174 -12.724,-11.6174 -7.27,0 -12.723,5.3938 -12.723,11.6174 l 0.305,441.6627 -84.496,52.575 -0.327,-424.1185 c 0,-6.2236 -5.452,-11.6174 -12.723,-11.6174 -7.27,0 -12.723,5.3938 -12.723,11.6174 L 107.804,424.593 24.2252,476.598 23.8558,53.5229 c 0,-6.6385 -5.4528,-11.6173 -12.7232,-11.6173 -6.81592,0 -12.7231,4.9788 -12.7231,11.6173 0,0 0.25165,288.1941 0.3804,435.6411 -5.58269,0.452 -11.1654,-1.183 -16.7481,-4.905 L -389.683,251.931 c -6.638,-4.979 -11.617,-11.617 -11.617,-21.574 v -83.15 -378.587 c 0,-9.957 6.638,-18.254 13.276,-21.573 l 373.3848,-232.328 c 9.95693,-6.638 19.91386,-6.638 29.8708,0 l 371.7254,232.328 c 6.638,4.978 11.616,11.616 11.616,21.573 v 378.587 83.15 c 0,9.957 -6.638,18.255 -13.276,21.574 z M -666.818,-148.229 V 81.0034 346.521 386.349 c 0,9.957 6.638,18.254 13.276,21.573 l 637.2433,398.277 c 11.61643,4.979 23.23284,4.979 29.8708,0 L 650.815,407.922 c 8.298,-6.638 13.276,-13.275 13.276,-21.573 V 346.521 81.0034 -148.229 -347.544 -387.372 c 0,-9.956 -6.638,-18.254 -13.276,-21.573 L 13.5721,-807.222 c -11.61642,-4.978 -23.23283,-4.978 -29.8708,0 l -637.2433,398.277 c -8.297,6.638 -13.276,13.276 -13.276,21.573 v 39.828 z"
         id="path2-5" />
    </g>
    <text
       xml:space="preserve"
       style="font-style:normal;font-variant:normal;font-weight:normal;font-stretch:normal;font-size:10.58333302px;line-height:1.25;font-family:'Open Sans';-inkscape-font-specification:'Open Sans';letter-spacing:0px;word-spacing:0px;fill:#ffffff;fill-opacity:1;stroke:none;stroke-width:0.26458332"
       x="86.202507"
       y="120.29884"
       id="text817-3-3-3"><tspan
         sodipodi:role="line"
         id="tspan815-6-6-5"
         x="86.202507"
         y="120.29884"
         style="font-style:normal;font-variant:normal;font-weight:normal;font-stretch:normal;font-family:Quicksand;-inkscape-font-specification:Quicksand;letter-spacing:-0.0079375px;fill:#ffffff;fill-opacity:1;stroke-width:0.26458332">themehive</tspan></text>
  </g>
</svg>
